<?xml version="1.0" encoding="utf-8"?>
<svg xmlns="http://www.w3.org/2000/svg" viewBox="8 0 174 113" width="174px" bx:displayUnits="dm" xmlns:bx="https://boxy-svg.com" height="113px"><defs><linearGradient gradientUnits="userSpaceOnUse" x1="245.536" y1="89.972" x2="245.536" y2="337.308" id="gradient-0" gradientTransform="matrix(0.255014, 0.329943, -0.25964, 0.200677, 122.949395, -76.350281)"><stop offset="0" style="stop-color: rgb(98.824% 52.549% 14.902%)"/><stop offset="1" style="stop-color: rgb(65.372% 24.444% 0%)"/></linearGradient><bx:export><bx:file format="png" path="Sem título.png" excluded="true"/><bx:file format="svg" path="logomini.svg"/></bx:export></defs><g id="Layer_1" transform="matrix(1, 0, 0, 1, -1.6619, 7.896205)"><path opacity="1.000000" stroke="none" d="M 104.847 99.886 C 94.023 100.45 83.392 100.294 72.769 100.174 C 57.567 100.001 42.358 99.777 27.192 98.562 C 23.878 98.296 20.544 98.081 17.281 97.361 C 16.301 97.144 15.196 97.11 14.442 95.739 C 18.548 93.312 23.369 94.404 27.493 93.03 C 27.725 92.506 27.544 92.217 27.29 91.967 C 25.398 90.113 25.156 87.84 25.68 85.41 C 26.74 80.496 28.996 75.994 30.642 71.281 C 33.458 63.218 34.86 54.942 35.058 46.405 C 35.449 29.504 42.516 15.939 56.334 6.253 C 75.359 -7.083 100.163 -5.602 117.816 9.599 C 119.151 10.748 120.285 11.095 122.077 10.671 C 147.094 4.761 172.005 22.084 174.869 47.551 C 177.081 67.221 166.893 85.267 148.053 93.134 C 147.567 93.337 146.985 93.376 146.614 93.97 C 148.341 94.562 150.223 94.377 151.813 95.267 C 152.027 95.387 152.147 95.675 152.386 95.983 C 151.712 96.967 150.732 97.171 149.707 97.349 C 144.639 98.225 139.513 98.653 134.395 98.912 C 124.622 99.406 114.849 100.052 104.847 99.886 M 77.758 15.73 C 75.246 16.939 72.873 18.361 70.742 20.176 C 63.628 26.234 58.971 33.957 55.696 42.575 C 52.799 50.195 51.318 58.008 52.759 66.203 C 56.822 89.303 83.307 101.306 103.246 89.044 C 103.924 88.628 104.805 88.375 104.991 87.182 C 103.963 86.21 102.859 85.171 101.761 84.127 C 84.699 67.913 84.029 39.794 100.377 22.996 C 101.778 21.556 101.722 20.705 100.232 19.559 C 93.515 14.398 86.279 12.265 77.758 15.73 Z" style="stroke-width: 1; fill-rule: evenodd; paint-order: fill; fill: url(&quot;#gradient-0&quot;);"/></g></svg>